<!-- Copyright 2000-2023 JetBrains s.r.o. and contributors. Use of this source code is governed by the Apache 2.0 license. -->
<svg width="16" height="16" viewBox="0 0 16 16" fill="none" xmlns="http://www.w3.org/2000/svg">
<path fill-rule="evenodd" clip-rule="evenodd" d="M12.8536 15.8536C12.6583 16.0488 12.3417 16.0488 12.1464 15.8536L9.14645 12.8536C8.95118 12.6583 8.95118 12.3417 9.14645 12.1464C9.34171 11.9512 9.65829 11.9512 9.85355 12.1464L12 14.2929L12 8.5C12 8.22386 12.2239 8 12.5 8C12.7761 8 13 8.22386 13 8.5L13 14.2929L15.1464 12.1464C15.3417 11.9512 15.6583 11.9512 15.8536 12.1464C16.0488 12.3417 16.0488 12.6583 15.8536 12.8536L12.8536 15.8536Z" fill="#57965C"/>
<path d="M3 2C1.89543 2 1 2.89543 1 4V12C1 13.1046 1.89543 14 3 14H8.87868L8.43934 13.5607C7.85355 12.9749 7.85355 12.0251 8.43934 11.4393C9.02512 10.8536 9.97487 10.8536 10.5607 11.4393L11 11.8787V8.5C11 7.67157 11.6716 7 12.5 7H15V4C15 2.89543 14.1046 2 13 2H3Z" fill="#43454A"/>
<path d="M3 3H13C13.5523 3 14 3.44772 14 4V7H15V4C15 2.89543 14.1046 2 13 2H3C1.89543 2 1 2.89543 1 4V12C1 13.1046 1.89543 14 3 14H8.87868L8.43934 13.5607C8.27559 13.3969 8.15762 13.2047 8.08542 13H3C2.44772 13 2 12.5523 2 12V4C2 3.44772 2.44772 3 3 3Z" fill="#CED0D6"/>
<path d="M3.5 5.5C3.5 5.22386 3.72386 5 4 5H5C5.27614 5 5.5 5.22386 5.5 5.5C5.5 5.77614 5.27614 6 5 6H4C3.72386 6 3.5 5.77614 3.5 5.5Z" fill="#CED0D6"/>
<path d="M7 5C6.72386 5 6.5 5.22386 6.5 5.5C6.5 5.77614 6.72386 6 7 6H8C8.27614 6 8.5 5.77614 8.5 5.5C8.5 5.22386 8.27614 5 8 5H7Z" fill="#CED0D6"/>
</svg>
