<svg width="16" height="16" viewBox="0 0 16 16" fill="none" xmlns="http://www.w3.org/2000/svg">
<path fill-rule="evenodd" clip-rule="evenodd" d="M10.1464 2.14645C10.3417 1.95118 10.6583 1.95118 10.8536 2.14645L13.8536 5.14645C14.0488 5.34171 14.0488 5.65829 13.8536 5.85355L10.8536 8.85355C10.6583 9.04882 10.3417 9.04882 10.1464 8.85355C9.95118 8.65829 9.95118 8.34171 10.1464 8.14645L12.2929 6H5.76145C5.081 6 4.76125 6.84102 5.26982 7.29308L9.40438 10.9682C10.5968 12.0281 9.84707 14 8.2517 14H2.5C2.22386 14 2 13.7761 2 13.5C2 13.2239 2.22386 13 2.5 13H8.2517C8.92755 13 9.24514 12.1647 8.74001 11.7157L4.60545 8.04049C3.40963 6.97754 4.16149 5 5.76145 5H12.2929L10.1464 2.85355C9.95118 2.65829 9.95118 2.34171 10.1464 2.14645Z" fill="#6C707E"/>
</svg>
