<!-- Copyright 2000-2023 JetBrains s.r.o. and contributors. Use of this source code is governed by the Apache 2.0 license. -->
<svg width="20" height="20" viewBox="0 0 20 20" fill="none" xmlns="http://www.w3.org/2000/svg">
<g clip-path="url(#clip0_8012_12092)">
<path fill-rule="evenodd" clip-rule="evenodd" d="M15 20C12.2386 20 10 18.8747 10 17.4949V12.4983C10 11.1185 12.2387 10 15.0001 10C17.7615 10 20.0001 11.1185 20.0001 12.4983L20 12.5V17.4949C20 18.8747 17.7614 20 15 20ZM17.8631 17.9241C18.3561 17.6768 18.4756 17.4887 18.5 17.4427V16.7825C17.5981 17.226 16.3627 17.5 15 17.5C13.6373 17.5 12.4019 17.226 11.5 16.7825V17.4427C11.5244 17.4887 11.6439 17.6768 12.1369 17.9241C12.7926 18.2529 13.8029 18.5 15 18.5C16.1971 18.5 17.2074 18.2529 17.8631 17.9241ZM11.5 14.9427V14.2876C12.4019 14.731 13.6373 15.0051 15 15.0051C16.3627 15.0051 17.5981 14.731 18.5 14.2876V14.9427C18.4756 14.9887 18.3561 15.1768 17.8631 15.4241C17.2074 15.7529 16.1971 16 15 16C13.8029 16 12.7926 15.7529 12.1369 15.4241C11.6439 15.1768 11.5244 14.9887 11.5 14.9427ZM12.135 12.0736C12.7498 11.7664 13.6766 11.5311 14.7775 11.5028C14.8509 11.501 14.9251 11.5 15 11.5C16.1985 11.5 17.2093 11.7459 17.8651 12.0736C18.245 12.2634 18.4026 12.418 18.4658 12.4996C18.4028 12.5816 18.245 12.7376 17.8631 12.9291C17.2074 13.258 16.1971 13.5051 15 13.5051C13.8029 13.5051 12.7926 13.258 12.1369 12.9291C11.7551 12.7377 11.5973 12.5817 11.5342 12.4997C11.5974 12.4181 11.755 12.2635 12.135 12.0736Z" fill="#6C707E"/>
<path d="M8.5 16.5H4C3.72386 16.5 3.5 16.2761 3.5 16V4C3.5 3.72386 3.72386 3.5 4 3.5H16C16.2761 3.5 16.5 3.72386 16.5 4V8.59869C17.0236 8.66894 17.5274 8.77602 18 8.91773V4C18 2.89543 17.1046 2 16 2H4C2.89543 2 2 2.89543 2 4V16C2 17.1046 2.89543 18 4 18H8.5V16.5Z" fill="#6C707E"/>
</g>
<defs>
<clipPath id="clip0_8012_12092">
<rect width="20" height="20" fill="white"/>
</clipPath>
</defs>
</svg>
