<svg width="40" height="40" viewBox="0 0 40 40" xmlns="http://www.w3.org/2000/svg" shape-rendering="geometricPrecision">

  <rect x="5" y="5" width="30" height="30" fill="#F5F7F9"></rect>

  <rect x="5" y="5" width="30" height="4" fill="#ECEFF1"></rect>
  <line x1="6" y1="9" x2="34" y2="9" stroke="#2F3337" stroke-width="2"></line>

  <!-- database -->
  <ellipse cx="20" cy="28" rx="7.5" ry="2.5" fill="#E1E4E8" stroke="#2F3337" stroke-width="2"></ellipse>
  <rect x="12.5" y="24" width="15" height="4" fill="#E1E4E8"></rect>
  <ellipse cx="20" cy="24" rx="7.5" ry="2.5" fill="#E1E4E8" stroke="#2F3337" stroke-width="2"></ellipse>

  <ellipse cx="20" cy="24" rx="7.5" ry="2.5" fill="#E1E4E8" stroke="#2F3337" stroke-width="2"></ellipse>
  <rect x="12.5" y="20" width="15" height="4" fill="#E1E4E8"></rect>
  <ellipse cx="20" cy="20" rx="7.5" ry="2.5" fill="#E1E4E8" stroke="#2F3337" stroke-width="2"></ellipse>

  <ellipse cx="20" cy="20" rx="7.5" ry="2.5" fill="#E1E4E8" stroke="#2F3337" stroke-width="2"></ellipse>
  <rect x="12.5" y="16" width="15" height="4" fill="#E1E4E8"></rect>
  <ellipse cx="20" cy="16" rx="7.5" ry="2.5" fill="#E1E4E8" stroke="#2F3337" stroke-width="2"></ellipse>

  <line x1="12.5" y1="16" x2="12.5" y2="28" stroke="#2F3337" stroke-width="2"></line>
  <line x1="27.5" y1="16" x2="27.5" y2="28" stroke="#2F3337" stroke-width="2"></line>

  <rect x="4.5" y="4.5" width="31" height="31" rx="3" fill="none" stroke="#2F3337" stroke-width="2"></rect>
</svg>
